TITLE ""
FILE "P1Q_t_1459-1468.mp3" MP3
  TRACK 01 AUDIO
    TITLE "P1Q_t_1459-1468_01"
    INDEX 01 00:00:00
  TRACK 02 AUDIO
    TITLE "P1Q_t_1459-1468_02"
    INDEX 01 00:01:37
  TRACK 03 AUDIO
    TITLE "P1Q_t_1459-1468_03"
    INDEX 01 00:01:59
  TRACK 04 AUDIO
    TITLE "P1Q_t_1459-1468_04"
    INDEX 01 00:04:18
  TRACK 05 AUDIO
    TITLE "P1Q_t_1459-1468_05"
    INDEX 01 00:04:37
  TRACK 06 AUDIO
    TITLE "P1Q_t_1459-1468_06"
    INDEX 01 00:08:12
  TRACK 07 AUDIO
    TITLE "P1Q_t_1459-1468_07"
    INDEX 01 00:08:55
  TRACK 08 AUDIO
    TITLE "P1Q_t_1459-1468_08"
    INDEX 01 00:09:66
  TRACK 09 AUDIO
    TITLE "P1Q_t_1459-1468_09"
    INDEX 01 00:10:13
  TRACK 10 AUDIO
    TITLE "P1Q_t_1459-1468_10"
    INDEX 01 00:12:13
  TRACK 11 AUDIO
    TITLE "P1Q_t_1459-1468_11"
    INDEX 01 00:12:33
  TRACK 12 AUDIO
    TITLE "P1Q_t_1459-1468_12"
    INDEX 01 00:17:52
  TRACK 13 AUDIO
    TITLE "P1Q_t_1459-1468_13"
    INDEX 01 00:18:20
  TRACK 14 AUDIO
    TITLE "P1Q_t_1459-1468_14"
    INDEX 01 00:19:17
  TRACK 15 AUDIO
    TITLE "P1Q_t_1459-1468_15"
    INDEX 01 00:19:37
  TRACK 16 AUDIO
    TITLE "P1Q_t_1459-1468_16"
    INDEX 01 00:21:69
  TRACK 17 AUDIO
    TITLE "P1Q_t_1459-1468_17"
    INDEX 01 00:22:14
  TRACK 18 AUDIO
    TITLE "P1Q_t_1459-1468_18"
    INDEX 01 00:26:18
  TRACK 19 AUDIO
    TITLE "P1Q_t_1459-1468_19"
    INDEX 01 00:26:68
  TRACK 20 AUDIO
    TITLE "P1Q_t_1459-1468_20"
    INDEX 01 00:27:68
  TRACK 21 AUDIO
    TITLE "P1Q_t_1459-1468_21"
    INDEX 01 00:28:14
  TRACK 22 AUDIO
    TITLE "P1Q_t_1459-1468_22"
    INDEX 01 00:30:33
  TRACK 23 AUDIO
    TITLE "P1Q_t_1459-1468_23"
    INDEX 01 00:30:51
  TRACK 24 AUDIO
    TITLE "P1Q_t_1459-1468_24"
    INDEX 01 00:34:58
  TRACK 25 AUDIO
    TITLE "P1Q_t_1459-1468_25"
    INDEX 01 00:35:28
  TRACK 26 AUDIO
    TITLE "P1Q_t_1459-1468_26"
    INDEX 01 00:36:53
  TRACK 27 AUDIO
    TITLE "P1Q_t_1459-1468_27"
    INDEX 01 00:36:73
  TRACK 28 AUDIO
    TITLE "P1Q_t_1459-1468_28"
    INDEX 01 00:38:36
  TRACK 29 AUDIO
    TITLE "P1Q_t_1459-1468_29"
    INDEX 01 00:38:56
  TRACK 30 AUDIO
    TITLE "P1Q_t_1459-1468_30"
    INDEX 01 00:43:16
  TRACK 31 AUDIO
    TITLE "P1Q_t_1459-1468_31"
    INDEX 01 00:43:61
  TRACK 32 AUDIO
    TITLE "P1Q_t_1459-1468_32"
    INDEX 01 00:44:74
  TRACK 33 AUDIO
    TITLE "P1Q_t_1459-1468_33"
    INDEX 01 00:45:21
  TRACK 34 AUDIO
    TITLE "P1Q_t_1459-1468_34"
    INDEX 01 00:47:73
  TRACK 35 AUDIO
    TITLE "P1Q_t_1459-1468_35"
    INDEX 01 00:48:17
  TRACK 36 AUDIO
    TITLE "P1Q_t_1459-1468_36"
    INDEX 01 00:53:32
  TRACK 37 AUDIO
    TITLE "P1Q_t_1459-1468_37"
    INDEX 01 00:54:00
  TRACK 38 AUDIO
    TITLE "P1Q_t_1459-1468_38"
    INDEX 01 00:55:19
  TRACK 39 AUDIO
    TITLE "P1Q_t_1459-1468_39"
    INDEX 01 00:55:43
  TRACK 40 AUDIO
    TITLE "P1Q_t_1459-1468_40"
    INDEX 01 00:57:59
  TRACK 41 AUDIO
    TITLE "P1Q_t_1459-1468_41"
    INDEX 01 00:58:04
  TRACK 42 AUDIO
    TITLE "P1Q_t_1459-1468_42"
    INDEX 01 01:01:71
  TRACK 43 AUDIO
    TITLE "P1Q_t_1459-1468_43"
    INDEX 01 01:02:39
  TRACK 44 AUDIO
    TITLE "P1Q_t_1459-1468_44"
    INDEX 01 01:03:62
  TRACK 45 AUDIO
    TITLE "P1Q_t_1459-1468_45"
    INDEX 01 01:04:08
  TRACK 46 AUDIO
    TITLE "P1Q_t_1459-1468_46"
    INDEX 01 01:06:17
  TRACK 47 AUDIO
    TITLE "P1Q_t_1459-1468_47"
    INDEX 01 01:06:37
  TRACK 48 AUDIO
    TITLE "P1Q_t_1459-1468_48"
    INDEX 01 01:10:36
  TRACK 49 AUDIO
    TITLE "P1Q_t_1459-1468_49"
    INDEX 01 01:11:04
  TRACK 50 AUDIO
    TITLE "P1Q_t_1459-1468_50"
    INDEX 01 01:12:22
  TRACK 51 AUDIO
    TITLE "P1Q_t_1459-1468_51"
    INDEX 01 01:12:41
  TRACK 52 AUDIO
    TITLE "P1Q_t_1459-1468_52"
    INDEX 01 01:15:55
  TRACK 53 AUDIO
    TITLE "P1Q_t_1459-1468_53"
    INDEX 01 01:16:00
  TRACK 54 AUDIO
    TITLE "P1Q_t_1459-1468_54"
    INDEX 01 01:20:00
  TRACK 55 AUDIO
    TITLE "P1Q_t_1459-1468_55"
    INDEX 01 01:20:45
  TRACK 56 AUDIO
    TITLE "P1Q_t_1459-1468_56"
    INDEX 01 01:21:62
  TRACK 57 AUDIO
    TITLE "P1Q_t_1459-1468_57"
    INDEX 01 01:22:06
  TRACK 58 AUDIO
    TITLE "P1Q_t_1459-1468_58"
    INDEX 01 01:24:33
  TRACK 59 AUDIO
    TITLE "P1Q_t_1459-1468_59"
    INDEX 01 01:24:52
  TRACK 60 AUDIO
    TITLE "P1Q_t_1459-1468_60"
    INDEX 01 01:29:20
